<?xml version="1.0" encoding="UTF-8"?>
<svg width="1323px" height="1056px" viewBox="0 0 1323 1056" version="1.1" xmlns="http://www.w3.org/2000/svg" xmlns:xlink="http://www.w3.org/1999/xlink">
    <title>顶层瞄边发光</title>
    <defs>
        <polygon id="path-1" points="15.970524 748.708985 21.8269282 761.806573 28.7407388 777.540695 37.5021054 797.677202 26.9629018 808.546207 27.6600927 810.77479 40.0584724 827.242061 43.1609722 831.481264 50.8765524 837.269519 52.8054475 838.084258 55.7568893 841.01918 59.5217206 842.241871 60.0213741 863.244401 72.8496882 856.693859 70.235222 852.567717 74.6856244 850.994188 75.6384521 855.854644 77.114173 857.894403 78.9617291 858.97839 80.7744257 860.936559 80.9603433 857.754534 80.2399126 855.03874 89.0245189 850.423055 91.5925057 855.749742 94.3231704 856.775449 95.3805767 854.467607 97.5302489 852.544405 97.6115879 845.883133 115.308619 846.562664 120.165716 841.399159 134.330313 842.78503 137.560631 842.894594 139.849741 844.850432 145.148393 853.733294 145.706146 854.362705 145.950163 860.225557 142.638505 864.876209 142.638505 880.588186 135.30638 885.203871 132.959171 888.141124 131.680987 893.30463 127.776718 896.288507 123.70977 896.673148 122.036512 898.736219 113.832898 903.491773 111.938863 903.923036 110.521241 903.107132 109.649752 903.841446 110.939555 904.470857 120.142476 903.713232 126.916849 905.368351 130.646821 909.774232 133.098609 910.71835 136.805341 911.452663 140.76771 914.692967 146.287138 915.695363 149.192101 920.311048 148.599488 922.350807 149.749853 926.068998 155.048505 927.456034 157.639731 927.700805 157.558392 932.456359 162.438729 933.22564 167.00533 932.211588 173.082512 932.164965 173.117371 944.228686 174.093439 949.683586 172.501519 951.536854 172.780396 954.415829 174.593092 955.779554 175.789937 954.171057 178.497362 955.581405 178.857577 959.031513 185.55061 957.376394 190.593625 954.718879 189.222483 959.252973 190.9887 961.351011 191.232717 964.066805 195.415863 964.847742 195.694739 966.293057 194.137679 967.435323 195.218325 968.927261 198.901818 969.684886 205.71105 972.645452 207.465647 976.013969 210.695965 973.950898 215.413624 975.722575 219.782687 971.456563 222.850328 967.073994 228.904269 962.271817 227.567987 961.479225 223.46618 956.758638 222.153137 955.884455 217.969991 950.72095 221.095731 949.392192 226.057406 948.494698 227.788764 947.678794 238.025852 944.881409 241.558286 942.352107 246.020308 940.988382 251.714034 945.207771 253.410532 945.883805 265.506796 948.867682 271.119183 950.091538 276.80129 944.65995 279.287938 943.331192 282.518256 940.475528 286.364426 936.512567 290.187357 935.230432 297.717019 933.272263 303.759341 930.71965 309.394968 928.878038 314.019668 929.146121 320.10847 931.314094 319.353179 935.312023 318.179575 938.494048 323.780342 946.536529 325.430361 951.047311 324.675071 953.460055 324.930707 956.618769 323.861681 959.171382 318.040136 962.050357 316.564416 964.148396 309.673845 976.643381 289.606364 990.560369 291.825756 993.544246 293.754651 997.728667 294.986355 1004.90862 287.456692 1008.8133 287.177816 1011.78552 289.211289 1021.97267 299.19274 1025.58596 301.702628 1026.72822 308.837216 1034.22288 310.371036 1036.6939 313.13656 1038.48889 320.07361 1044.66645 324.338095 1048 326.789883 1047.70861 329.020894 1046.77614 330.647673 1045.61057 334.493844 1044.68976 335.016737 1041.99728 335.655829 1041.77582 344.242898 1041.36787 352.469751 1040.42375 355.258515 1038.85022 362.5674 1038.03432 366.332232 1034.99216 369.783327 1033.62844 371.352007 1032.50948 375.558392 1031.07582 379.57886 1030.60959 382.448963 1031.48377 388.409946 1031.239 389.188476 1029.91025 389.467352 1026.72822 391.954 1027.07789 395.742071 1025.48105 397.694206 1021.89108 397.496669 1017.40361 399.344225 1013.70873 396.6368 1009.05807 396.055807 1006.94838 396.381163 1003.17191 397.636107 1001.23705 399.425564 1000.03651 400.51783 996.831173 398.472736 992.763309 399.123448 991.562765 398.751612 988.951873 399.820639 988.29915 399.169927 986.422571 400.401631 983.007431 400.064655 980.990982 400.878045 979.638913 399.901978 976.806561 401.796013 973.624536 401.400938 972.435648 402.411865 971.235104 402.469964 968.111357 406.223176 964.253298 405.258728 961.234454 407.536219 958.623561 409.325676 957.761034 410.52252 955.558094 410.104206 954.392517 410.940835 950.965721 413.171846 946.967792 414.287351 946.373348 415.286658 947.573892 417.935984 948.249927 419.469804 947.375744 419.946218 946.105265 419.249027 940.58043 424.803315 938.843721 429.730132 939.985986 430.345984 937.864636 431.740366 937.048732 433.831939 933.924986 435.702734 934.96235 437.515431 934.985661 440.583071 933.575313 441.942594 934.146446 443.092959 937.270192 443.058099 939.682936 442.360908 941.804286 442.581685 943.389471 443.929588 944.578359 445.463408 949.636963 446.346517 950.58108 448.833165 951.455263 450.366985 952.737398 450.564522 954.392517 449.751133 959.357875 444.487341 964.82443 440.803848 970.582381 438.677416 972.31909 436.562603 979.149371 435.900272 986.725621 433.71574 991.422896 428.393849 995.502415 431.717126 998.742719 434.970684 1000.52605 436.202388 1000.7242 439.967219 1002.5425 441.838015 1004.03444 445.428549 1004.93193 449.21662 1006.31897 452.28426 1006.995 454.155056 1006.86679 455.049784 1005.93433 457.222696 1006.21407 458.117424 1004.66385 460.453014 1005.0718 462.718885 1007.51951 466.843932 1008.95317 469.655935 1013.07932 471.782368 1014.19827 470.469325 1016.94903 472.142583 1017.78825 474.117957 1017.13552 477.220457 1020.07278 481.252545 1021.75121 482.821225 1020.36417 484.994137 1022.62539 489.979052 1023.79097 491.884708 1024.99151 496.288631 1026.1804 496.788284 1029.17593 498.264005 1031.4255 497.683013 1032.99902 498.240765 1034.09467 499.600288 1033.93149 503.167582 1035.6682 505.875007 1034.74739 506.40952 1033.73334 508.245456 1033.16221 510.360269 1033.68672 510.732104 1034.60752 516.216673 1034.14129 519.063536 1032.46286 521.213208 1031.72855 525.535792 1033.9548 528.766111 1032.9524 529.718938 1032.1365 532.310165 1032.1365 532.949256 1031.18072 532.612281 1027.48585 533.309472 1026.37855 532.949256 1021.26167 533.228133 1017.75328 534.541176 1014.58291 533.204893 1011.17942 534.703854 1011.07452 537.074303 1013.13759 537.550717 1015.20067 539.421513 1018.406 541.19935 1017.86984 541.594425 1016.01657 543.209584 1015.58531 544.069453 1012.70633 545.521934 1012.62474 544.662065 1010.77147 545.498694 1008.68509 540.757795 1005.01352 539.584191 1001.97137 541.280689 999.791738 540.641597 998.661129 542.70993 993.194573 544.685305 991.702634 544.824743 988.870282 548.206119 986.1778 550.320932 983.951548 551.26214 981.970067 554.887533 977.890548 557.37418 979.359175 558.98934 977.622465 557.257982 975.722575 557.711156 973.333142 560.662598 972.214188 562.475294 968.6009 565.519695 965.640334 567.239433 967.272142 570.620809 964.416479 572.793721 960.127155 573.374714 957.784346 572.479985 957.003409 575.18741 954.847092 576.860668 952.574217 578.28991 951.595132 580.904376 948.739469 582.693833 949.846767 584.111455 949.660275 582.833271 947.678794 585.866052 944.718229 581.822344 941.676073 583.216726 940.009298 585.924151 943.517684 589.491445 943.272913 592.593945 941.314744 597.497521 939.473132 595.963701 935.12553 594.952774 933.248952 593.814029 932.980869 593.314376 930.556469 594.53446 929.309302 598.671126 931.10429 599.310218 932.083375 605.073663 937.759734 607.083897 935.941434 607.304675 933.598625 609.489206 934.799169 611.348382 933.493723 612.975161 935.370302 613.277277 937.188602 614.6368 939.356575 615.984702 940.312348 619.435798 939.904396 620.748841 937.946227 621.050957 935.498515 623.061191 933.190673 626.9887 926.94318 627.964767 926.068998 631.032408 925.474553 633.681733 923.551352 637.481424 923.108432 639.096583 921.476625 639.898353 922.5373 639.619477 924.775207 637.667342 926.756688 637.667342 928.225315 635.552529 929.682286 635.808166 932.433048 637.341986 932.374769 636.865572 933.901675 638.59693 934.472807 639.37546 932.025096 640.688503 931.127602 648.160066 931.267471 649.136133 930.57978 649.740366 927.840675 652.424551 926.103965 652.006236 924.308977 652.866105 920.905492 653.760834 920.311048 653.063643 918.352878 655.399232 917.0824 656.689036 917.047432 661.209157 918.737519 662.742977 918.271288 665.61308 920.369326 668.366985 921.371723 671.05117 919.530111 672.689569 920.369326 675.373754 919.36693 674.781142 916.756038 676.338202 915.2641 676.814615 909.121509 678.74351 907.291553 680.079793 903.818134 681.613613 901.859965 684.20484 896.976198 684.599915 895.472603 686.412611 893.432844 686.459091 892.104086 688.666862 889.166832 688.690102 886.998859 691.734502 884.551148 692.210916 881.858665 693.965514 881.812042 697.091253 879.550823 698.810991 879.247773 701.320878 881.10104 706.677629 883.082521 710.419221 886.486005 711.860082 887.16204 716.577741 884.795919 718.831992 877.511063 724.944033 875.144942 727.198284 874.795269 734.809285 872.510738 735.924791 873.979365 737.772347 878.082196 740.967806 878.117163 746.080539 877.219669 748.776345 876.368798 754.609509 870.424355 757.979265 868.897449 759.396887 866.263246 761.941634 869.690042 763.719471 869.328713 766.368797 866.449738 769.21566 866.403115 771.504771 865.610522 772.3414 864.468257 772.167102 862.813138 770.586802 860.831657 771.981184 856.612269 771.586109 854.957149 772.538937 853.60508 774.793188 853.138849 773.375566 851.122401 773.422046 849.525561 772.3414 849.956824 770.726241 847.540583 772.027664 845.937915 771.191035 845.313166 770.586802 842.323461 771.307233 841.861893 768.46037 841.045989 767.484303 838.383811 762.743404 833.220305 760.512393 831.481264 763.161718 830.393781 765.090614 826.99729 766.92655 827.052072 768.553329 825.7746 769.436437 823.382836 768.355791 821.100636 767.402964 822.921268 766.484995 820.312706 764.834977 819.606367 764.137786 818.302086 765.311391 817.730953 766.206119 813.681739 762.859602 812.432241 763.161718 811.344757 765.067374 809.932078 765.671606 807.948266 766.601194 808.166229 767.6586 806.807167 770.168488 805.366513 773.282608 804.878137 779.139012 806.345598 778.720697 802.187985 778.953094 800.094609 780.428815 799.687823 778.441821 795.936996 779.452748 795.09545 778.058366 792.676877 778.441821 791.589394 777.779489 789.551966 781.486221 785.067991 784.240126 781.208766 784.635201 779.579289 787.679601 780.257655 790.352167 779.687688 791.851127 777.839083 789.875753 775.148932 790.433506 772.785142 791.432813 772.621961 791.827888 769.958618 794.058899 768.627529 798.021268 770.040208 799.276211 769.361842 802.866745 769.66023 804.435425 768.735927 804.656202 767.594828 806.073823 768.192768 807.747082 770.747713 807.665743 773.383083 809.536539 775.774846 810.117531 779.144529 810.512606 784.606423 811.209797 786.127501 810.454507 787.404973 808.025958 788.111313 809.257662 790.909863 809.559778 795.285439 809.222803 798.899893 807.665743 801.04572 814.695752 800.176199 816.508448 800.964129 818.460583 799.659849 822.806407 800.964129 823.189862 802.839543 825.595171 802.269576 826.013485 800.122583 827.094131 799.714631 828.023719 801.535262 831.0565 800.910513 829.604019 798.926701 830.30121 797.377649 828.407174 795.53021 829.662118 794.279546 833.42695 793.274818 836.076275 791.317815 837.493897 790.909863 839.957305 788.600855 843.571078 787.160202 845.104898 784.82322 846.836256 784.660039 850.682426 782.078286 851.751452 780.502426 852.576462 781.155149 855.458185 780.09564 857.154683 784.415268 858.990619 787.18701 859.548372 789.062423 859.548372 789.089232 860.780076 789.986726 863.708278 790.366704 865.0678 788.572881 864.068493 787.023829 864.788924 785.17639 868.030862 785.17639 868.867491 783.736902 869.367145 780.855596 872.736901 778.681795 873.271414 776.915946 876.141517 776.128016 877.977453 777.812275 877.036245 780.230847 879.76691 780.040858 881.079953 778.220227 882.358137 778.301817 884.287032 781.100367 886.262406 780.665607 888.156442 781.018777 889.527584 779.932459 892.17691 779.714496 893.118117 777.703876 895.26779 778.083854 899.055861 775.611666 899.532274 771.072909 897.719578 767.160067 896.580833 767.214849 894.965673 764.469916 900.124887 765.067857 900.822078 762.676093 899.86925 758.51848 899.369597 754.279277 900.450243 752.540236 900.427003 752.513428 900.961516 751.997077 901.623847 751.589125 901.984063 751.290737 903.192527 750.529616 903.355205 750.584398 904.075636 750.638014 904.749587 750.149638 904.912265 749.170553 905.24924 748.763767 908.119343 748.301033 908.816534 747.051534 910.629231 747.975837 913.03454 748.029453 916.962049 747.187907 919.553275 748.464213 922.179361 748.410597 923.201908 747.812656 923.06247 744.849759 922.039923 744.986132 924.154736 742.540751 924.212835 740.801711 926.025532 739.742201 928.50056 740.502157 928.814296 739.714227 931.684398 739.714227 934.69394 740.9917 936.587975 740.611722 939.795054 738.763117 940.771121 739.116286 940.608443 740.801711 943.281008 743.655043 944.059538 745.4477 949.660306 751.182339 950.86877 753.138177 950.171579 755.503132 952.483929 758.464863 951.926177 759.551181 948.6029 761.399786 948.742338 762.676093 951.287085 764.551506 954.575502 766.208957 953.820212 769.22547 954.180427 770.312953 956.806514 771.779249 955.051916 774.470566 958.561111 774.823736 959.734716 773.16512 959.39774 771.779249 960.594585 771.072909 962.105165 771.644042 963.185811 773.219902 962.744257 774.660555 960.617824 775.230522 962.965034 776.263223 963.964341 777.459105 963.638985 780.394028 961.930867 780.991969 965.172805 784.524832 964.940408 786.182283 962.988274 790.584667 960.9548 790.529885 960.455146 788.464482 957.82906 788.029722 956.109323 789.905135 955.772347 793.003239 956.806514 794.252737 956.969191 796.481321 959.118864 798.030372 959.502319 801.372081 963.464687 803.980642 964.0573 806.399215 962.070305 808.899377 964.580193 810.150041 965.55626 811.507938 966.114013 814.144473 965.55626 816.698252 966.973882 818.546857 968.426363 817.350975 973.666915 815.937131 978.268376 816.453481 980.418048 816.236684 983.34625 817.812544 984.624434 816.073503 987.947711 814.769222 988.00581 816.698252 990.097383 819.225223 992.746709 818.192522 994.141091 818.926835 999.242205 819.659983 1002.67006 819.578393 1003.9831 820.312706 1004.62219 818.790463 1005.87714 818.410485 1008.43351 817.757762 1010.00219 814.116499 1009.04936 812.867001 1012.0589 811.889082 1012.15186 809.605717 1013.20926 808.845761 1013.43004 806.970347 1011.39657 804.388594 1011.41981 803.139096 1014.04589 803.057506 1013.84836 801.698443 1010.52508 800.014184 1008.96802 797.62242 1008.6078 794.687498 1009.46767 793.356409 1009.40957 791.127826 1008.27083 789.497184 1009.1888 788.600855 1010.16486 784.578449 1009.66521 783.464157 1010.44374 781.208766 1009.68845 780.584017 1009.72331 778.600205 1012.03566 775.312112 1012.45397 771.264064 1010.97825 769.497049 1009.27013 769.415459 1008.99126 767.7312 1008.02681 767.268466 1007.6085 765.394218 1005.7958 764.443108 1007.4342 762.106126 1007.71307 760.773871 1010.78072 758.328491 1014.62689 757.29579 1016.89276 755.475159 1017.77586 752.948188 1019.48398 754.470431 1020.92484 754.714037 1020.9016 756.181498 1019.44912 758.491672 1020.28575 759.034831 1022.5981 759.795952 1022.96994 761.263414 1025.80518 761.997727 1028.73338 763.790384 1033.13731 763.545613 1033.72992 766.317355 1032.95139 768.464348 1033.3116 770.80133 1034.67113 771.970403 1035.64719 774.850544 1036.73946 775.856437 1036.8789 777.404323 1038.07574 778.301817 1038.21518 781.426729 1039.83034 782.89419 1041.34092 787.921324 1042.17755 787.784951 1042.59586 790.393512 1041.42226 792.730494 1041.92191 794.524317 1044.65258 795.203848 1046.55823 793.246845 1046.04696 790.611475 1048.59171 787.323383 1048.83572 785.992294 1050.06743 785.69274 1051.68259 783.817327 1053.27451 784.062098 1053.43718 783.002589 1052.07766 782.594637 1052.60055 781.290356 1054.69213 780.557209 1054.30867 779.687688 1057.20201 777.051153 1058.37562 777.677068 1060.96685 775.746873 1060.68797 773.24671 1062.6401 772.241983 1061.4084 770.284979 1065.98662 767.431647 1066.74191 766.50851 1068.57785 767.29644 1072.98177 764.279927 1074.03918 763.057237 1076.08427 763.355624 1077.44379 762.785657 1077.86211 761.263414 1080.29066 761.888163 1080.29066 760.230713 1082.57977 759.605963 1085.22909 760.530266 1086.86749 761.888163 1088.76153 761.181823 1089.55168 759.660745 1091.0274 759.551181 1091.60839 758.355299 1093.92074 756.317871 1095.45456 753.954081 1098.4641 752.974996 1099.812 750.474834 1099.35883 750.013265 1103.04232 747.649475 1105.23847 747.594693 1107.24871 746.290412 1108.48041 747.159933 1111.40861 746.861545 1113.08187 745.067722 1112.90757 746.372003 1115.69634 749.931675 1117.20692 749.850084 1119.40307 746.996752 1121.91296 745.149313 1122.58691 745.80087 1123.20276 743.980239 1123.78375 744.687744 1125.85209 742.56756 1127.26971 739.551047 1127.01407 736.426135 1128.18768 735.828194 1128.0831 734.442323 1131.67363 733.790765 1133.64901 732.268522 1134.12542 733.084426 1138.11103 734.660286 1140.09802 734.633478 1140.09802 731.698555 1142.66601 733.980755 1145.53611 734.660286 1146.1752 735.583423 1148.76643 734.713902 1148.76643 733.274415 1151.69463 730.312684 1150.71857 729.388381 1147.65092 729.008403 1146.73296 725.665529 1150.60237 724.877599 1156.01722 725.82871 1156.91194 726.34506 1157.09786 728.165691 1159.1081 729.198392 1160.42114 728.62726 1164.02329 728.410462 1164.24407 729.361573 1166.41698 730.176311 1169.26385 732.974862 1170.82091 730.529481 1170.98358 729.388381 1172.7498 729.252009 1173.63291 730.421083 1175.20159 728.926813 1178.73402 729.469972 1181.44145 727.459352 1186.40312 725.583938 1183.78866 723.844898 1184.64853 721.616314 1184.42775 719.742067 1187.83237 715.55648 1190.72571 715.094912 1195.76872 713.437461 1197.58142 712.513159 1200.37018 714.713768 1202.0202 714.931731 1202.38042 712.893137 1204.66953 709.659826 1204.8903 706.344926 1206.28469 703.981136 1205.34348 702.160504 1206.72624 701.236202 1206.16849 698.681257 1207.70231 698.219689 1207.95794 692.078264 1203.63536 692.349843 1200.76526 689.279714 1199.62651 690.094452 1198.11593 687.404301 1196.1057 687.865869 1195.10639 689.606075 1193.43313 685.910031 1192.5965 685.013702 1190.38873 684.469378 1191.03944 682.785119 1189.88908 680.801307 1192.39897 679.768606 1196.58211 681.099695 1196.97719 679.687016 1195.74548 679.252256 1195.16449 677.811602 1199.25468 678.164772 1199.2082 676.154152 1200.40504 675.584185 1199.56841 672.567672 1199.64975 670.910221 1197.95325 669.08959 1198.65045 666.969406 1197.00043 663.736095 1197.2793 661.779092 1194.07222 655.392896 1192.87538 654.441785 1194.24652 653.84501 1192.6546 651.671209 1191.08592 650.720098 1190.94648 647.240851 1191.98065 646.697692 1192.51516 644.115939 1193.59581 642.323282 1190.76057 641.181016 1189.08731 639.170396 1188.63413 636.561835 1185.00874 630.719963 1181.91786 629.306119 1181.27877 627.050727 1182.53371 625.420085 1181.77842 623.709018 1182.31294 621.725206 1181.75518 620.229771 1179.071 620.474542 1177.23506 621.290446 1169.5892 627.322307 1165.26662 629.142938 1162.65215 632.34944 1161.39721 634.469624 1159.88663 634.604831 1154.16966 636.670234 1152.69394 637.567728 1145.28048 637.811333 1143.10756 636.371846 1144.02553 632.920573 1144.16497 626.507568 1143.76989 622.268365 1141.15543 622.105184 1140.99275 619.19707 1139.70295 617.051243 1136.77475 615.910143 1135.97298 613.491571 1135.49656 609.768718 1136.13565 607.974895 1138.14589 606.289471 1137.72757 605.284744 1135.4617 605.77312 1135.83354 603.7625 1137.2744 604.659994 1138.48286 603.599319 1135.35712 602.839363 1135.27578 600.502382 1133.06801 594.469355 1134.4043 594.387765 1134.76451 591.914411 1134.20676 588.464303 1135.29902 587.513192 1136.25185 584.468705 1135.79868 579.741125 1137.30926 577.10459 1139.54027 577.267771 1141.23677 575.583512 1141.65508 571.099538 1137.5068 569.85004 1137.47194 564.768124 1138.98252 562.485925 1138.448 560.528921 1133.74196 558.409902 1130.9532 556.126537 1130.53489 553.219588 1129.30318 550.393064 1130.63946 550.229883 1130.97644 548.654023 1129.47748 544.115267 1127.8507 542.974167 1124.81792 542.376226 1122.33127 543.35531 1122.28479 544.49641 1117.86925 543.545299 1115.7312 541.859875 1114.72027 540.257207 1115.31288 539.088133 1117.12558 539.550867 1119.71681 537.485465 1120.27456 535.175292 1120.414 534.305771 1122.56367 532.240369 1122.02916 530.582918 1122.74959 529.441819 1122.19183 526.643268 1120.05378 524.169914 1122.64501 522.594054 1123.76051 522.512464 1124.67848 523.953117 1127.38591 523.789936 1127.57182 524.849446 1132.6497 526.778475 1134.68317 529.821797 1134.96205 531.805609 1139.92372 533.436251 1141.5505 535.093701 1142.32903 537.267502 1144.46709 536.289583 1146.1171 533.246262 1147.70902 533.491033 1147.23261 529.496601 1151.02068 529.523409 1153.28655 533.35466 1153.67001 538.001816 1154.4834 538.001816 1156.01722 535.746424 1158.13203 538.571783 1159.84015 539.034517 1160.25846 541.61627 1161.23453 543.62689 1164.40675 543.327337 1164.82506 541.316716 1166.69586 539.360878 1164.88316 534.876904 1165.80113 533.463059 1167.05607 533.463059 1168.33426 529.821797 1166.7191 519.305962 1178.17627 517.566921 1179.26854 516.017869 1181.19743 515.583109 1180.74426 512.838175 1181.85976 512.674995 1181.91786 510.311205 1184.17211 507.839016 1182.53371 504.550923 1180.16326 501.289639 1176.61921 495.556166 1176.56111 489.631539 1176.2009 486.343446 1178.49001 485.990276 1178.17627 483.490114 1179.60551 483.191726 1180.54672 484.469199 1184.28831 483.734885 1186.43798 485.447118 1188.75033 483.544896 1188.61089 480.636782 1190.50493 480.556357 1192.67784 479.523656 1197.58142 478.925715 1203.41458 478.762534 1204.69277 476.153973 1204.58819 470.528898 1202.35718 469.604596 1204.41389 468.273507 1203.21705 466.887636 1203.49592 465.365393 1202.21774 465.365393 1202.15964 468.408714 1201.57865 469.712995 1199.0339 469.631404 1197.97649 468.381906 1200.00997 461.805721 1198.17403 460.799828 1195.26907 462.51206 1191.3648 458.870798 1189.74964 458.13765 1189.86584 460.474632 1192.39897 460.06668 1194.4092 462.43047 1194.5254 464.3595 1193.03806 468.925065 1191.5391 469.659378 1189.47076 467.104433 1186.12425 468.082352 1186.20559 470.012548 1185.09008 471.20843 1183.50978 475.392851 1180.77912 475.746021 1179.57065 475.066489 1177.29316 476.80553 1176.25899 476.0176 1175.94526 473.980172 1171.87831 470.935685 1171.29732 465.093813 1171.35542 460.77302 1168.84553 462.322071 1166.63776 462.023684 1166.97473 460.963009 1165.88247 459.876691 1166.05677 457.946496 1169.12441 455.012738 1169.42652 453.327314 1168.0089 453.762074 1162.98913 451.914635 1161.59474 451.859853 1158.68978 449.849233 1157.21406 447.593841 1154.86685 444.875716 1153.39113 441.099247 1151.77597 439.550195 1150.7999 437.403202 1149.76574 434.713051 1153.78621 431.316559 1155.4246 424.985146 1157.71371 421.507064 1165.46415 416.996281 1169.26385 412.947067 1172.77304 411.371207 1177.95549 408.083115 1183.42844 405.691351 1185.78727 402.81121 1187.69293 399.278346 1189.69154 394.061224 1200.42828 389.440877 1202.32232 387.838209 1208.01604 380.582493 1209.88684 377.484389 1215.15063 372.430448 1222.23874 364.14203 1224.93455 361.207107 1227.56063 359.359668 1233.1033 354.332535 1235.58995 356.561118 1235.05543 359.794428 1236.31038 361.235081 1235.39241 362.756159 1236.36848 365.039524 1235.75263 367.022171 1237.36778 369.413934 1237.9023 371.614544 1240.47028 374.196297 1240.05197 376.016928 1240.33085 378.571872 1242.86397 379.115031 1242.7013 381.859965 1240.8305 382.701511 1240.19141 384.958068 1242.44566 384.250563 1243.00341 382.539496 1244.25836 382.429932 1245.35062 380.935662 1244.57209 379.73978 1246.12915 377.267592 1247.58163 373.082005 1246.66366 372.675219 1247.60487 370.691407 1245.85027 368.082846 1246.12915 366.560602 1244.85097 365.174731 1245.12984 361.833022 1244.33969 360.55555 1246.52423 359.033306 1245.5133 355.773188 1246.21049 354.387317 1244.93231 352.973472 1247.58163 350.20173 1248.60418 347.729541 1249.63835 342.973987 1249.08059 339.794294 1251.06759 337.320939 1250.53307 335.663489 1250.97463 333.842858 1252.92676 333.326507 1253.76339 330.31116 1253.46128 327.892588 1255.0532 327.892588 1255.61095 324.658112 1257.94654 320.963233 1258.86451 316.995609 1258.00464 314.359074 1259.73599 313.407963 1260.31699 310.854184 1262.40856 309.631494 1265.87128 311.125764 1268.42764 310.174653 1268.18363 311.505742 1271.94846 313.652734 1273.81925 312.348454 1275.12068 309.441505 1276.57316 309.278324 1276.93337 305.120711 1276.35238 303.163708 1278.46719 300.011988 1278.24642 297.403426 1279.19924 296.017555 1278.22318 294.930072 1278.24642 291.995149 1278.88551 290.799267 1276.96823 288.517068 1276.1897 284.821023 1277.21225 285.038986 1277.04957 280.93499 1275.93407 281.044554 1274.23757 278.516418 1273.62172 279.44072 1272.39001 276.750569 1272.61079 275.554687 1274.09813 275.744676 1275.21363 276.940558 1275.0161 278.191222 1276.57316 275.77265 1276.82879 271.750244 1275.87597 271.207085 1276.6545 269.739624 1276.7126 266.64152 1274.67912 264.494527 1277.46789 263.435018 1276.82879 261.83235 1277.74676 261.505988 1276.27104 259.005826 1276.85203 257.946316 1275.65519 257.049988 1275.23687 255.309781 1277.10767 255.472962 1277.58408 253.327135 1279.22248 252.729194 1280.11721 251.451722 1279.47812 249.929478 1278.08374 249.5495 1279.757 248.380426 1280.91898 249.249947 1281.47673 247.810459 1279.47812 247.510906 1279.6408 245.853456 1278.32775 245.147116 1279.24572 243.462857 1280.73306 242.538555 1283.66127 242.755352 1281.81371 241.071093 1283.96338 240.283163 1284.3236 238.32616 1285.52044 238.625713 1286.94968 237.158252 1286.63595 234.03334 1287.72821 233.570606 1287.61201 231.506369 1290.65641 229.006207 1290.18 227.673952 1291.37685 227.022395 1290.26134 223.761111 1290.90043 222.674793 1292.29481 223.897483 1293.02686 223.407941 1292.07404 221.369347 1292.88743 220.581417 1295.0371 221.016177 1296.25718 219.033531 1298.29066 217.891265 1300.16145 215.310678 1300.7773 216.478586 1301.49773 214.739545 1302.61324 214.631146 1304.18192 212.565744 1303.20585 209.549231 1303.50797 208.326541 1302.5319 206.722707 1303.03155 205.608415 1302.36922 204.114146 1304.00762 202.401913 1301.97415 200.826053 1302.6481 199.874943 1300.97484 199.304975 1303.03155 197.402754 1304.14706 198.59747 1304.96045 197.674333 1304.48404 195.962101 1306.93582 195.065772 1306.37807 194.277842 1307.96999 193.625119 1309.16684 191.587691 1310.16614 188.218008 1311.79292 190.255436 1311.73482 187.810056 1312.81547 186.315786 1313.8264 186.450993 1315 183.43448 1313.79154 182.402944 1313.43132 180.28276 1314.58169 177.945778 1310.81685 174.984047 1311.61862 172.483885 1310.56122 172.130715 1309.48057 173.271815 1307.80731 171.043232 1305.76222 170.500073 1305.12313 165.63612 1303.70551 164.658201 1301.11428 164.711818 1301.07942 162.130065 1300.16145 161.125338 1298.32552 157.375677 1294.979 153.54326 1294.8628 153.000101 1294.83956 152.238979 1293.82863 151.34265 1293.80539 151.124688 1293.58462 150.879916 1291.9346 147.619798 1290.54022 145.662794 1285.85742 140.228874 1283.84718 138.570259 1282.54576 135.771708 1280.95384 136.777601 1279.72214 135.03856 1276.99147 134.549018 1276.35238 135.473321 1274.59778 134.630608 1272.52945 134.928996 1272.44811 133.189955 1271.11183 133.244738 1269.35723 137.75552 1269.93822 140.90724 1268.76462 142.646281 1266.84734 142.674255 1265.89452 144.195333 1263.41949 144.929646 1262.90821 146.695495 1264.02372 148.652499 1261.43249 151.505831 1260.49129 153.571234 1256.83103 152.673739 1255.97116 153.026909 1255.43665 155.147094 1252.76409 156.994533 1249.71968 157.375677 1247.94185 154.739142 1246.52423 153.89643 1243.56116 153.516451 1243.00341 154.84754 1241.44635 155.147094 1240.69106 157.049315 1240.8305 159.276733 1239.77309 161.396917 1236.72869 159.847865 1234.83466 159.467887 1233.66105 158.761548 1232.18533 156.125013 1230.07052 156.504991 1227.16556 155.935024 1225.44582 156.369784 1224.60919 157.864053 1221.12323 157.728846 1218.63659 158.407212 1218.02073 159.331515 1216.26614 157.864053 1214.23266 154.467562 1212.05975 154.929131 1208.29492 152.238979 1205.98257 156.261385 1206.06391 157.972452 1202.46176 158.869946 1202.46176 159.766275 1197.05853 160.337408 1196.02436 161.478507 1194.85075 160.907375 1193.15426 161.776895 1191.481 161.370109 1189.41266 162.701198 1186.57742 161.641688 1186.57742 160.880566 1181.89462 159.521504 1179.2453 157.837245 1176.22414 158.488803 1174.5625 156.043422 1174.5625 153.054883 1173.66777 151.722629 1171.73887 150.989481 1171.5762 148.81568 1170.26315 148.081366 1169.50786 146.450724 1170.68147 144.005344 1169.7054 142.999451 1170.68147 142.049506 1170.40259 140.337273 1168.53179 138.843004 1169.5892 137.021207 1167.97404 135.092177 1167.7765 133.461535 1166.08001 130.336623 1164.74372 126.776951 1165.77789 124.358379 1163.98843 120.472346 1163.68632 117.102663 1162.79159 116.233142 1163.849 114.087315 1163.70956 109.711739 1161.79228 110.011293 1160.92079 108.244278 1160.2817 103.788277 1159.14296 103.162363 1159.97959 99.902244 1159.30563 98.053639 1162.0944 97.7820595 1164.24407 96.8041405 1165.66169 94.8471368 1165.52225 90.9342951 1166.47508 89.4668337 1165.26662 88.4073243 1163.01237 89.1952543 1161.55988 87.6741764 1157.3535 88.4341326 1156.21475 87.2394162 1152.47316 86.2335233 1152.75204 82.8638404 1151.07878 78.9509987 1149.8006 80.3636779 1147.9879 78.8426 1147.45339 77.4835373 1146.31464 77.4567291 1145.58259 74.0870462 1144.8854 72.8911643 1140.23746 73.3527327 1138.90118 71.8316548 1138.48286 70.0378319 1137.16982 70.3094114 1137.2744 71.4237029 1135.6941 74.6033968 1134.48564 75.4997254 1134.96205 76.4776445 1132.68456 77.5383195 1132.45216 80.1736889 1129.7796 82.7006597 1128.46655 86.0703426 1126.35174 87.3746231 1123.64432 87.2394162 1120.37914 85.3371947 1117.90411 84.6028812 1117.96221 82.7554418 1115.35936 79.2225781 1116.28895 77.0219689 1114.52273 75.2013377 1112.30334 75.2817625 1111.15298 74.0054558 1109.0614 74.2770352 1107.98076 72.1848246 1107.02793 72.3480054 1104.40184 71.0973414 1104.21593 69.4130827 1101.5666 68.4619719 1100.23032 65.5538575 1098.24332 64.5759385 1095.7683 65.2822781 1093.81616 63.651636 1096.29119 62.1573663 1098.80108 59.7119859 1099.57961 57.8913548 1102.44971 57.3750042 1106.16806 53.4609969 1107.14413 50.6904205 1108.70119 50.1740699 1109.89803 48.4886457 1112.32658 46.7496049 1113.66286 44.6026122 1112.90757 43.1631247 1113.18645 41.6676895 1115.5569 40.1466116 1116.23085 37.4564601 1117.96221 33.7056335 1121.13443 32.1577474 1122.58691 28.8964631 1120.65801 26.7762787 1121.07633 25.6619872 1119.65871 22.4018685 1118.26432 22.5370754 1115.6731 20.6628277 1115.45232 18.7874145 1116.31219 18.4610529 1116.33543 15.3361412 1114.63893 13.6786908 1113.40723 13.9502702 1111.62939 11.4780816 1108.42231 9.0863177 1108.16668 8 1104.40184 9.35789712 1100.81131 8.86952039 1099.53313 10.7169598 1095.87287 12.3196281 1092.6077 11.93965 1091.41085 12.5643992 1090.01647 10.3090079 1088.06434 11.4780816 1083.32344 11.0153475 1082.68435 11.7228527 1080.26742 11.2601187 1079.57023 12.4560006 1077.44379 13.1891485 1078.25718 15.4177316 1077.50189 15.2545508 1073.62086 18.0542666 1071.56415 20.3364662 1071.38985 22.7818466 1070.16977 23.1897985 1069.44934 25.4719981 1065.76584 27.2926293 1064.25526 30.0923451 1060.80417 32.7824966 1058.91013 36.7221466 1056.7256 37.9728107 1056.16785 40.6081801 1053.65796 41.7224717 1053.75092 43.3531138 1050.36954 45.3905422 1048.51037 48.0806938 1046.69767 47.6191253 1044.88497 49.4397565 1041.72438 50.5808563 1043.51383 55.6359634 1041.89867 60.1187723 1042.53776 63.7064181 1043.73461 64.629555 1045.96562 64.5759385 1049.1146 65.1738794 1053.41394 61.8310048 1058.25942 62.3741636 1061.22248 60.2003627 1062.19855 61.3426281 1065.70774 63.9232154 1067.68312 64.3859494 1068.65919 65.7718204 1070.11167 66.0433998 1071.56415 67.5108612 1073.53952 68.2987912 1071.38985 70.2010127 1072.28458 71.5868837 1071.20393 73.7059025 1071.44795 76.4508362 1069.69335 79.2225781 1069.89089 80.6632312 1068.51975 81.3963791 1068.69405 84.168121 1069.89089 85.743981 1071.78493 86.6682835 1072.70289 88.8152762 1074.49235 89.0320735 1074.03918 92.918107 1075.90997 96.4777789 1074.71313 98.0268307 1075.0501 100.065425 1074.41101 101.831274 1072.76099 102.755576 1071.56415 104.657798 1071.62225 106.152067 1072.78423 106.99478 1072.20324 109.35857 1070.30921 111.233983 1070.03033 113.570965 1065.12675 114.928862 1065.14999 116.804275 1062.08235 116.559504 1062.02425 118.814895 1058.43372 120.390755 1058.7126 121.641419 1056.76046 123.597257 1054.66889 123.896811 1053.63472 126.368999 1050.54384 128.897136 1048.11529 131.668878 1044.23426 131.804084 1044.85011 133.924269 1042.97932 135.010587 1041.92191 138.706631 1042.6772 140.364081 1041.08528 143.272196 1039.6328 144.440104 1039.49336 146.097554 1040.42295 147.782979 1039.52822 148.81568 1038.99371 152.075798 1036.26305 152.75533 1036.43734 153.97802 1037.8782 154.957105 1035.04296 156.696145 1035.08944 159.168334 1031.74292 160.744194 1032.53307 162.048475 1031.13869 163.462319 1032.21934 165.581338 1030.52284 164.739792 1029.46543 165.717711 1030.72038 168.461479 1029.96509 172.103907 1029.10522 172.620257 1029.62811 174.440888 1027.59464 175.663579 1027.93161 177.402619 1025.72384 179.902782 1023.57417 180.419132 1022.13331 182.184982 1020.82027 185.853052 1017.27621 189.820676 1017.61319 193.489912 1018.36848 194.467831 1017.49699 197.511153 1017.9734 198.082285 1015.40542 202.999854 1014.52231 203.787784 1012.47721 203.897349 1012.87229 205.01164 1011.39657 207.483829 1008.52646 208.624929 1007.77117 209.712412 1008.41027 211.696224 1006.99264 214.331593 1006.91131 217.674468 1006.37679 220.636199 1005.14509 221.152549 1004.86621 223.054771 1002.49576 222.483638 1000.71793 224.875402 1003.03028 225.60855 1002.07745 226.614443 1003.56479 227.837133 1005.54016 226.559661 1006.79511 228.000314 1007.57364 226.506044 1009.64197 227.483963 1011.25713 227.022395 1012.31454 229.494583 1010.92015 230.935237 1010.4205 235.147632 1009.46767 236.83189 1011.25713 238.462532 1010.38564 238.870484 1010.89691 240.717924 1009.04936 241.071093 1008.16625 243.869644 1005.7377 247.157736 1003.64613 246.261408 1003.80881 247.53888 1002.41442 250.527419 1000.68307 251.12536 999.126006 253.48915 994.22243 253.951884 993.4439 253.272353 985.600501 255.609334 984.240979 255.337755 983.230052 256.260892 980.197271 255.582526 977.15287 257.646763 975.793348 257.321567 973.806354 260.391697 971.714781 261.91394 971.668301 264.414103 969.855605 264.059767 967.229519 264.657708 967.810511 266.396749 967.14818 267.702195 964.0573 268.896911 962.628058 270.527554 959.757955 271.505473 959.339641 274.250406 956.852993 276.397399 955.632909 275.744676 953.518096 279.44072 950.276158 279.577093 949.578967 278.979152 947.545493 280.881373 943.699323 281.206569 942.944033 284.006285 941.131336 286.125304 933.380897 282.375643 926.467086 278.299621 917.101487 278.054849 907.61969 273.924045 892.560365 263.218221 891.723735 263.245029 878.628165 292.456718 861.419167 331.152706 862.75545 334.658762 862.371995 335.419883 851.553915 352.701892 850.159533 355.799996 851.216939 373.27316 850.659187 373.435175 837.912212 380.365695 838.644262 381.751566 838.388625 383.815803 840.236181 396.235025 856.480731 412.349126 857.793774 411.914366 864.266031 403.680731 865.125899 402.892801 871.26118 399.278346 879.74367 401.94169 889.550824 398.327236 895.047012 397.865667 899.032621 398.109273 908.793295 402.838018 921.900485 415.17565 926.827301 407.267211 928.000906 407.050413 928.44246 405.636569 941.328874 389.822021 944.652151 389.197272 948.021907 390.175191 952.123714 389.957228 954.633602 388.816128 955.412132 387.701836 956.574117 388.462958 960.571345 388.08298 960.536485 388.78932 962.662918 390.175191 965.695699 390.501552 966.706625 389.794047 968.879537 389.93042 969.762646 391.207892 975.479612 391.452663 984.763872 406.424499 1001.10138 413.626598 1001.91477 421.968633 1004.30846 423.327695 1011.5941 426.207836 1009.60711 429.577519 1011.5941 429.849098 1012.51207 431.561331 1014.84766 432.837637 1015.44028 434.54987 1020.34385 437.892745 1020.73893 441.560815 1023.43473 441.615597 1027.4552 445.093679 1029.57001 449.414472 1031.55701 454.468414 1030.82496 455.121137 1031.02249 457.26813 1033.27674 460.474632 1033.9507 463.65316 1036.9951 464.522681 1036.68136 467.892363 1037.41341 472.07795 1036.54192 474.196969 1037.35531 477.213482 1036.29791 480.066814 1033.92746 480.066814 1031.44081 479.250911 1031.85912 480.148405 1030.48798 482.946955 1028.51261 483.653295 1025.7006 485.663915 1025.92138 484.332826 1024.74777 482.973763 1022.13331 483.463306 1020.28575 482.430604 1017.27621 482.730158 1014.56879 482.104243 1011.97756 484.441225 1011.22227 483.381715 1009.78141 484.088055 1006.93455 481.425877 1004.12254 481.479494 1001.91477 480.827936 1000.60173 481.832664 998.370716 479.605246 995.558712 475.011707 992.828048 476.588733 991.07345 475.854419 991.154789 473.082678 988.02905 473.30064 985.437823 476.887121 985.437823 478.897741 980.418048 478.191401 978.68669 476.642349 976.293001 478.517763 969.995043 477.756641 968.345024 476.180781 964.080539 475.447633 962.209744 476.995519 960.571345 477.430279 958.479772 479.197294 955.377272 479.495682 951.868077 482.593785 949.439529 482.593785 948.963115 483.681269 945.907095 484.142837 943.815522 486.28983 943.9201 487.974088 941.328874 489.251561 939.353499 488.789992 938.377432 489.821528 936.367198 490.175863 933.520335 487.430929 932.683706 484.930767 931.486861 484.441225 926.9435 484.632379 923.515644 485.855069 924.770588 489.414741 922.2607 493.707561 921.50541 496.778856 921.865625 498.191536 921.342732 500.474901 915.707105 500.038975 908.897873 500.691698 898.916422 499.469008 896.999147 498.897875 896.046319 500.773289 892.978679 502.620728 889.725121 502.783909 885.727893 504.930901 885.17014 507.131511 883.508502 508.870551 879.127818 515.093567 877.977453 515.338338 871.540057 526.262125 870.227013 532.186752 872.295347 534.605324 871.818933 535.121675 872.214008 538.762937 871.040403 538.708155 869.343905 540.583569 869.088268 542.214211 867.136133 544.388012 864.463568 544.985953 860.838175 544.631617 860.4431 546.180669 856.376153 548.029274 853.087735 551.915307 845.639412 559.251449 840.515058 560.502113 830.475508 563.599051 822.027877 563.355445 813.208411 564.441763 810.373168 564.007002 802.425191 560.63732 795.894835 562.865903 793.640584 563.925412 793.140931 567.893036 792.222963 570.609996 789.515538 575.148752 787.226427 577.349362 784.414424 581.208587 782.880603 581.996517 777.326315 586.534108 775.850594 589.252233 773.979799 591.642831 771.644209 593.300282 764.509621 594.332983 762.441288 597.649049 759.594425 598.545378 755.666915 602.45822 752.018283 605.203153 747.916476 604.306825 746.243217 603.137751 728.650765 601.725072 725.14157 600.25761 720.621449 599.143319 716.65908 599.116511 710.419221 596.616348 705.318107 593.328256 702.633921 588.817473 698.032461 584.278716 696.115186 584.74145 683.310111 584.197126 681.392836 582.702856 678.290336 583.056026 673.805074 585.52938 667.507116 590.854901 664.241938 597.865847 661.174298 603.082969 659.396461 607.730124 658.280955 611.479785 658.69927 615.990568 656.909813 617.649184 656.189382 620.366144 654.574223 621.562026 652.250253 627.567078 651.72736 629.930868 652.308352 632.322632 655.852407 633.926466 657.072491 635.963894 657.409466 639.469949 658.222856 641.725341 662.905655 648.681504 664.695112 650.393736 667.890571 651.888006 672.306114 656.317198 676.338202 663.681313 676.849475 668.410059 675.954747 671.861332 673.247322 673.084022 668.843399 673.192421 660.337669 683.111481 658.443633 684.577776 653.563296 684.334171 651.030169 685.692068 648.938596 687.975433 641.211396 690.475596 639.735675 691.480323 636.052183 692.866194 633.821172 694.605235 624.757689 705.883357 622.480198 708.980295 620.969618 709.578236 618.738607 712.893137 618.854805 713.817439 616.205479 719.116152 608.896594 725.12237 607.420873 728.70885 603.400405 731.127422 593.953467 735.285035 592.535846 737.268847 583.391024 737.703607 575.582485 741.181689 573.316614 742.432353 566.995416 747.757874 564.40419 748.600586 555.561484 750.013265 543.546559 748.627394 541.617664 749.198527 535.377805 752.486619 533.251373 751.290737 529.021747 751.399136 521.213208 749.578505 510.615905 749.850084 507.885241 748.518996 501.134108 749.986457 498.101327 750.176446 496.509408 751.399136 494.359736 751.997077 485.156815 751.290737 477.82469 751.425944 474.536272 748.735793 472.944353 748.600586 465.588988 751.453918 464.136507 754.415649 454.155056 757.187391 442.140131 758.899624 434.308352 761.942945 423.432173 766.86168 422.177229 767.594828 407.176003 774.768954 394.882202 779.850869 387.991632 783.545748 378.742231 789.117205 374.500986 791.997346 371.735462 791.915756 361.730771 802.133203 357.826502 797.812409 352.423272 797.920808 347.229199 798.355568 339.757636 797.350841 340.036512 784.361652 334.993497 785.25798 329.996962 786.453862 319.655296 788.627663 310.092159 788.790844 291.360962 784.225279 289.710943 783.926891 280.147807 779.008157 271.758275 775.013725 257.733117 767.37803 253.63131 767.29644 249.982677 766.806898 245.822771 767.921189 229.740899 763.057237 228.683492 762.514078 219.956985 750.231228 216.610469 745.828844 215.099888 745.475674 205.478653 744.22501 193.440488 740.746929 174.035339 735.502998 172.385321 735.258227 149.691754 734.333924 147.298065 737.648825 135.166942 736.888869 133.575023 736.942486 112.89169 741.86122 88.013592 739.469456 69.1661958 737.540426 53.2818613 736.616124 36.8281541 733.356005 11.9616758 728.654068 7 727.83933"></polygon>
        <filter x="-0.9%" y="-1.2%" width="101.9%" height="102.4%" filterUnits="objectBoundingBox" id="filter-2">
            <feMorphology radius="0.25" operator="dilate" in="SourceAlpha" result="shadowSpreadOuter1"></feMorphology>
            <feOffset dx="0" dy="0" in="shadowSpreadOuter1" result="shadowOffsetOuter1"></feOffset>
            <feGaussianBlur stdDeviation="4" in="shadowOffsetOuter1" result="shadowBlurOuter1"></feGaussianBlur>
            <feComposite in="shadowBlurOuter1" in2="SourceAlpha" operator="out" result="shadowBlurOuter1"></feComposite>
            <feColorMatrix values="0 0 0 0 0   0 0 0 0 0.140070359   0 0 0 0 0.55465654  0 0 0 1 0" type="matrix" in="shadowBlurOuter1"></feColorMatrix>
        </filter>
        <filter x="-1.0%" y="-1.3%" width="102.0%" height="102.6%" filterUnits="objectBoundingBox" id="filter-3">
            <feGaussianBlur stdDeviation="5" in="SourceAlpha" result="shadowBlurInner1"></feGaussianBlur>
            <feOffset dx="0" dy="0" in="shadowBlurInner1" result="shadowOffsetInner1"></feOffset>
            <feComposite in="shadowOffsetInner1" in2="SourceAlpha" operator="arithmetic" k2="-1" k3="1" result="shadowInnerInner1"></feComposite>
            <feColorMatrix values="0 0 0 0 0.146549281   0 0 0 0 0.597099304   0 0 0 0 1  0 0 0 0.668443373 0" type="matrix" in="shadowInnerInner1"></feColorMatrix>
        </filter>
    </defs>
    <g id="二稿" stroke="none" stroke-width="1" fill="none" fill-rule="evenodd" stroke-linecap="round" stroke-linejoin="round">
        <g id="顶层瞄边发光">
            <use fill="black" fill-opacity="1" filter="url(#filter-2)" xlink:href="#path-1"></use>
            <use fill-opacity="0" fill="#1E5B72" fill-rule="evenodd" xlink:href="#path-1"></use>
            <use fill="black" fill-opacity="1" filter="url(#filter-3)" xlink:href="#path-1"></use>
            <use stroke="#C1FFFF" stroke-width="0.5" xlink:href="#path-1"></use>
        </g>
    </g>
</svg>