<?xml version="1.0" standalone="no"?><!DOCTYPE svg PUBLIC "-//W3C//DTD SVG 1.1//EN" "http://www.w3.org/Graphics/SVG/1.1/DTD/svg11.dtd"><svg t="1669381586392" class="icon" viewBox="0 0 1024 1024" version="1.1" xmlns="http://www.w3.org/2000/svg" p-id="5576" xmlns:xlink="http://www.w3.org/1999/xlink" width="64" height="64"><path d="M107.140741 632.414815c-3.792593-32.237037-8.533333-64.474074-12.325926-96.711111 6.637037-6.637037 13.274074-12.325926 19.911111-18.962963 17.066667-49.303704 42.666667-93.866667 75.851852-134.637037 113.777778-17.066667 230.4-15.17037 347.022222-7.585185 68.266667 24.651852 128.948148 56.888889 178.251852 100.503703 57.837037 16.118519 115.674074 31.288889 174.459259 47.407408 35.081481 42.666667 38.874074 91.97037 12.325926 140.325926l-60.681481 7.585185c2.844444-8.533333 4.740741-18.014815 4.74074-28.444445 0-25.6-10.42963-48.355556-27.496296-65.422222-17.066667-17.066667-39.822222-27.496296-65.422222-27.496296s-48.355556 10.42963-65.422222 27.496296c-17.066667 17.066667-27.496296 39.822222-27.496297 65.422222 0 14.222222 2.844444 27.496296 8.533334 38.874074H295.822222c5.688889-12.325926 8.533333-25.6 8.533334-38.874074 0-25.6-10.42963-48.355556-27.496297-65.422222-17.066667-17.066667-39.822222-27.496296-65.422222-27.496296s-48.355556 10.42963-65.422222 27.496296c-17.066667 17.066667-27.496296 39.822222-27.496296 65.422222v3.792593l-11.377778-13.274074z m105.244444-68.266667c-21.807407 0-41.718519 8.533333-55.940741 22.755556S132.740741 621.037037 132.740741 642.844444c0 21.807407 8.533333 41.718519 22.755555 55.940741s34.133333 22.755556 55.940741 22.755556c21.807407 0 41.718519-8.533333 55.940741-22.755556s22.755556-34.133333 22.755555-55.940741c0-21.807407-8.533333-41.718519-22.755555-55.94074-13.274074-14.222222-33.185185-22.755556-54.992593-22.755556z m541.392593 0c-21.807407 0-41.718519 8.533333-55.940741 22.755556s-22.755556 34.133333-22.755556 55.94074c0 21.807407 8.533333 41.718519 22.755556 55.940741s34.133333 22.755556 55.940741 22.755556c21.807407 0 41.718519-8.533333 55.940741-22.755556s22.755556-34.133333 22.755555-55.940741c0-21.807407-8.533333-41.718519-22.755555-55.94074s-34.133333-22.755556-55.940741-22.755556z m12.325926 69.214815c1.896296 1.896296 3.792593 4.740741 4.74074 8.533333 6.637037 0 16.118519-1.896296 18.962963-2.844444 4.740741-0.948148 9.481481-2.844444 14.222223-3.792593-1.896296-10.42963-6.637037-19.911111-14.222223-27.496296l-11.377777 11.377778c-2.844444 1.896296-9.481481 8.533333-12.325926 14.222222z m-7.585185 27.496296c-0.948148 0-2.844444 0.948148-3.792593 0.948148-1.896296 0-3.792593 0-5.688889-0.948148-3.792593 5.688889-6.637037 15.17037-6.637037 18.014815-0.948148 3.792593-1.896296 8.533333-2.844444 12.325926 4.740741 1.896296 10.42963 2.844444 16.118518 2.844444 4.740741 0 9.481481-0.948148 14.222222-1.896296-0.948148-4.740741-1.896296-8.533333-2.844444-13.274074-2.844444-3.792593-5.688889-12.325926-8.533333-18.014815z m-19.911112-20.859259c0.948148-2.844444 2.844444-5.688889 5.688889-7.585185-2.844444-5.688889-10.42963-13.274074-12.325926-15.170371-3.792593-3.792593-7.585185-7.585185-11.377777-10.429629 0 0-0.948148 0-1.896297 0.948148-6.637037 6.637037-11.377778 15.17037-13.274074 25.6 4.740741 1.896296 9.481481 2.844444 14.222222 3.792593 2.844444 0.948148 12.325926 2.844444 18.962963 2.844444z m17.066667-13.274074c4.740741-9.481481 14.222222-18.962963 22.755556-27.496296-7.585185-3.792593-15.17037-6.637037-23.703704-6.637037-7.585185 0-15.17037 1.896296-21.807407 4.74074 8.533333 9.481481 18.014815 19.911111 22.755555 29.392593z m47.407407 22.755555c-11.377778 2.844444-24.651852 5.688889-34.133333 4.740741 4.740741 8.533333 8.533333 19.911111 11.377778 30.340741 2.844444-1.896296 5.688889-4.740741 8.533333-6.637037 7.585185-7.585185 13.274074-17.066667 14.222222-28.444445z m-76.8 34.133334c2.844444-11.377778 7.585185-22.755556 12.325926-31.288889-10.42963 0-22.755556-2.844444-34.133333-5.688889 0.948148 12.325926 6.637037 22.755556 14.222222 31.288889 2.844444 1.896296 4.740741 3.792593 7.585185 5.688889z m-502.518518-50.251852c1.896296 1.896296 3.792593 4.740741 4.740741 8.533333 6.637037 0 16.118519-1.896296 18.962963-2.844444 4.740741-0.948148 9.481481-2.844444 14.222222-3.792593-1.896296-10.42963-6.637037-19.911111-14.222222-27.496296l-11.377778 11.377778c-2.844444 1.896296-9.481481 8.533333-12.325926 14.222222z m-7.585185 27.496296c-0.948148 0-2.844444 0.948148-3.792593 0.948148-1.896296 0-3.792593 0-5.688889-0.948148-3.792593 5.688889-6.637037 15.17037-6.637037 18.014815-0.948148 3.792593-1.896296 8.533333-2.844444 12.325926 4.740741 1.896296 10.42963 2.844444 16.118518 2.844444 4.740741 0 9.481481-0.948148 14.222223-1.896296-0.948148-4.740741-1.896296-8.533333-2.844445-13.274074-2.844444-3.792593-4.740741-12.325926-8.533333-18.014815z m-18.962963-20.859259c0.948148-2.844444 2.844444-5.688889 5.688889-7.585185-2.844444-5.688889-10.42963-13.274074-12.325926-15.170371-3.792593-3.792593-7.585185-7.585185-11.377778-10.429629l-1.896296 1.896296c-6.637037 6.637037-11.377778 15.17037-13.274074 25.6 4.740741 1.896296 9.481481 2.844444 14.222222 3.792593 2.844444 0 12.325926 1.896296 18.962963 1.896296z m16.118518-13.274074c4.740741-9.481481 14.222222-18.962963 22.755556-27.496296-7.585185-3.792593-15.17037-6.637037-23.703704-6.637037-7.585185 0-15.17037 1.896296-21.807407 4.74074 8.533333 9.481481 18.014815 19.911111 22.755555 29.392593z m48.355556 22.755555c-11.377778 2.844444-24.651852 5.688889-34.133333 4.740741 4.740741 8.533333 8.533333 19.911111 11.377777 30.340741 2.844444-1.896296 5.688889-4.740741 8.533334-6.637037 7.585185-7.585185 12.325926-17.066667 14.222222-28.444445z m-77.748148 34.133334c2.844444-11.377778 7.585185-22.755556 12.325926-31.288889-10.42963 0-22.755556-2.844444-34.133334-5.688889 0.948148 12.325926 6.637037 22.755556 14.222223 31.288889 2.844444 1.896296 4.740741 3.792593 7.585185 5.688889z m383.051852-189.62963c3.792593-11.377778 7.585185-21.807407 11.377777-33.185185 26.548148 0.948148 46.459259 10.42963 62.577778 24.651852l-2.844444 5.688889 17.066666 7.585185 16.118519-15.17037c-42.666667-37.925926-99.555556-65.422222-141.274074-86.281482-51.2-2.844444-99.555556-3.792593-147.911111-2.844444l3.792592 50.251851 3.792593 54.044445 221.866667 3.792593c5.688889 24.651852 7.585185 49.303704 7.585185 73.955555 0 26.548148-3.792593 53.096296-10.42963 79.644445H394.42963c-4.740741-16.118519-8.533333-33.185185-10.42963-50.251852-2.844444-18.014815-4.740741-36.977778-5.688889-56.888889v-41.718519H369.777778V549.925926c0.948148 19.911111 2.844444 38.874074 5.688889 57.837037s7.585185 36.02963 12.325926 54.044444l0.948148 2.844445H615.348148l0.948148-2.844445c7.585185-28.444444 11.377778-56.888889 12.325926-84.385185 0-24.651852-1.896296-49.303704-7.585185-73.955555H635.259259l-21.807407-8.533334-46.459259-0.948148z m-170.666667 34.133334v9.481481h41.718518v-9.481481h-41.718518z m-35.081482-132.740741c-31.288889 0.948148-62.577778 1.896296-93.866666 3.792592-18.962963 23.703704-31.288889 49.303704-41.718519 74.903704 5.688889 7.585185 11.377778 14.222222 17.066667 21.807407l113.777778 1.896297 4.74074-102.4z m528.118519 147.911111l-71.111111-14.222222s32.237037 49.303704 48.355555 50.251852c15.17037 0.948148 25.6-7.585185 25.6-7.585186h11.377778l-14.222222-28.444444z m-757.57037-53.096296h35.081481c4.740741-36.977778 7.585185-52.148148 17.066667-86.281482H180.148148c-21.807407 30.340741-30.340741 47.407407-48.355555 86.281482z" p-id="5577" fill="#d4237a"></path></svg>