<?xml version="1.0" standalone="no"?><!DOCTYPE svg PUBLIC "-//W3C//DTD SVG 1.1//EN" "http://www.w3.org/Graphics/SVG/1.1/DTD/svg11.dtd"><svg t="1669381207359" class="icon" viewBox="0 0 1024 1024" version="1.1" xmlns="http://www.w3.org/2000/svg" p-id="3492" xmlns:xlink="http://www.w3.org/1999/xlink" width="64" height="64"><path d="M409.6 622.276923C409.6 730.978462 321.378462 819.2 212.676923 819.2S15.753846 730.978462 15.753846 622.276923 103.975385 425.353846 212.676923 425.353846 409.6 513.575385 409.6 622.276923z" fill="#D7E9FF" p-id="3493"></path><path d="M212.676923 425.353846H204.8c105.550769 4.726154 189.046154 89.796923 189.046154 196.923077 0 105.550769-83.495385 192.196923-189.046154 196.923077h7.876923C321.378462 819.2 409.6 730.978462 409.6 622.276923S321.378462 425.353846 212.676923 425.353846z" fill="#94C1FF" p-id="3494"></path><path d="M31.507692 622.276923C31.507692 516.726154 115.003077 430.08 220.553846 425.353846h-7.876923C103.975385 425.353846 15.753846 513.575385 15.753846 622.276923S103.975385 819.2 212.676923 819.2h7.876923c-105.550769-4.726154-189.046154-91.372308-189.046154-196.923077z" fill="#FFFFFF" p-id="3495"></path><path d="M1008.246154 622.276923C1008.246154 730.978462 920.024615 819.2 811.323077 819.2S614.4 730.978462 614.4 622.276923 702.621538 425.353846 811.323077 425.353846 1008.246154 513.575385 1008.246154 622.276923z" fill="#D7E9FF" p-id="3496"></path><path d="M811.323077 425.353846H803.446154c105.550769 4.726154 189.046154 89.796923 189.046154 196.923077 0 105.550769-83.495385 192.196923-189.046154 196.923077h7.876923C920.024615 819.2 1008.246154 730.978462 1008.246154 622.276923S920.024615 425.353846 811.323077 425.353846z" fill="#94C1FF" p-id="3497"></path><path d="M630.153846 622.276923c0-105.550769 83.495385-192.196923 189.046154-196.923077h-7.876923C702.621538 425.353846 614.4 513.575385 614.4 622.276923S702.621538 819.2 811.323077 819.2h7.876923c-105.550769-4.726154-189.046154-91.372308-189.046154-196.923077z" fill="#FFFFFF" p-id="3498"></path><path d="M811.323077 622.276923m-39.384615 0a39.384615 39.384615 0 1 0 78.76923 0 39.384615 39.384615 0 1 0-78.76923 0Z" fill="#94C1FF" p-id="3499"></path><path d="M212.676923 622.276923m-39.384615 0a39.384615 39.384615 0 1 0 78.76923 0 39.384615 39.384615 0 1 0-78.76923 0Z" fill="#94C1FF" p-id="3500"></path><path d="M425.353846 275.692308c0 15.753846-94.523077 23.630769-110.276923 23.630769-31.507692 0-31.507692-23.630769-31.507692-23.630769 31.507692-15.753846 141.784615 0 141.784615 0z" fill="#94C1FF" p-id="3501"></path><path d="M441.107692 645.907692c0-12.603077 11.027692-23.630769 23.63077-23.630769s23.630769 11.027692 23.630769 23.630769c0 6.301538-3.150769 12.603077-7.876923 17.329231-4.726154 3.150769-9.452308 6.301538-15.753846 6.301539-12.603077 0-23.630769-11.027692-23.63077-23.63077z" fill="#D7E9FF" p-id="3502"></path><path d="M464.738462 701.046154c-29.932308 0-55.138462-25.206154-55.138462-55.138462s25.206154-55.138462 55.138462-55.138461c3.150769 0 7.876923 0 11.027692 1.575384 25.206154 4.726154 44.110769 26.781538 44.110769 53.563077 0 15.753846-6.301538 31.507692-18.904615 40.96-9.452308 9.452308-22.055385 14.178462-36.233846 14.178462z m0-78.769231c-12.603077 0-23.630769 11.027692-23.63077 23.630769s11.027692 23.630769 23.63077 23.63077c6.301538 0 11.027692-3.150769 15.753846-6.301539 4.726154-4.726154 7.876923-11.027692 7.876923-17.329231 0-12.603077-11.027692-23.630769-23.630769-23.630769z" fill="#94C1FF" p-id="3503"></path><path d="M212.676923 669.538462h-6.301538c-12.603077-1.575385-23.630769-7.876923-29.932308-17.329231-6.301538-7.876923-11.027692-18.904615-11.027692-29.932308 0-23.630769 17.329231-44.110769 40.96-47.261538h6.301538c4.726154 0 7.876923 3.150769 7.876923 7.876923s-3.150769 7.876923-7.876923 7.876923h-4.726154c-14.178462 1.575385-26.781538 15.753846-26.781538 31.507692 0 7.876923 3.150769 14.178462 7.876923 20.48s12.603077 9.452308 20.48 11.027692h4.726154c7.876923 0 17.329231-3.150769 22.055384-9.452307 3.150769-3.150769 7.876923-3.150769 11.027693 0 3.150769 3.150769 3.150769 7.876923 0 11.027692-9.452308 9.452308-22.055385 14.178462-34.658462 14.178462zM811.323077 827.076923c-113.427692 0-204.8-91.372308-204.8-204.8 0-9.452308 0-18.904615 1.575385-26.781538 7.876923-66.166154 48.836923-124.455385 108.701538-155.963077 3.150769-1.575385 7.876923 0 11.027692 3.150769 1.575385 3.150769 0 7.876923-3.150769 11.027692-55.138462 28.356923-92.947692 81.92-100.824615 143.36-1.575385 7.876923-1.575385 15.753846-1.575385 23.630769 0 103.975385 85.070769 189.046154 189.046154 189.046154 7.876923 0 15.753846 0 25.206154-1.575384 85.070769-11.027692 151.236923-77.193846 162.264615-162.264616v-1.575384c1.575385-7.876923 1.575385-15.753846 1.575385-23.63077 0-94.523077-70.892308-174.867692-163.84-187.470769-9.452308-1.575385-17.329231-1.575385-25.206154-1.575384-15.753846 0-29.932308 1.575385-45.686154 4.726153-4.726154 1.575385-7.876923-1.575385-9.452308-6.301538-1.575385-4.726154 1.575385-7.876923 6.301539-9.452308 15.753846-3.150769 31.507692-6.301538 48.836923-6.301538 7.876923 0 17.329231 0 26.781538 1.575384 102.4 12.603077 178.018462 100.824615 178.018462 203.224616 0 7.876923 0 17.329231-1.575385 26.781538v1.575385c-12.603077 91.372308-85.070769 162.264615-176.443077 174.867692-9.452308 4.726154-18.904615 4.726154-26.781538 4.726154z" fill="#116FFF" p-id="3504"></path><path d="M811.323077 669.538462h-6.301539c-23.630769-3.150769-40.96-23.630769-40.96-47.261539V614.4c1.575385-6.301538 3.150769-12.603077 6.301539-18.904615 1.575385-3.150769 7.876923-4.726154 11.027692-3.15077 3.150769 1.575385 4.726154 7.876923 3.150769 11.027693-1.575385 3.150769-3.150769 7.876923-4.726153 12.603077v4.726153c0 15.753846 11.027692 29.932308 26.781538 31.507693h4.726154c14.178462 0 28.356923-11.027692 31.507692-25.206154v-6.301539c0-14.178462-9.452308-26.781538-22.055384-29.932307-4.726154-1.575385-6.301538-6.301538-4.726154-9.452308 1.575385-4.726154 4.726154-6.301538 9.452307-4.726154 20.48 6.301538 34.658462 23.630769 34.658462 45.686154 0 3.150769 0 6.301538-1.575385 9.452308-4.726154 22.055385-25.206154 37.809231-47.261538 37.809231zM212.676923 630.153846c-1.575385 0-3.150769 0-4.726154-1.575384-3.150769-3.150769-4.726154-7.876923-1.575384-11.027693l163.84-211.101538 1.575384-1.575385c3.150769-3.150769 7.876923-3.150769 11.027693-1.575384 3.150769 3.150769 3.150769 7.876923 1.575384 11.027692l-1.575384 1.575384-163.84 211.101539c-1.575385 1.575385-4.726154 3.150769-6.301539 3.150769z" fill="#116FFF" p-id="3505"></path><path d="M811.323077 630.153846c-3.150769 0-6.301538-1.575385-7.876923-4.726154l-110.276923-291.446154v-1.575384l-23.630769-63.015385c-1.575385-4.726154 0-7.876923 4.726153-9.452307 4.726154-1.575385 7.876923 0 9.452308 4.726153l23.630769 63.015385v1.575385l110.276923 289.870769c1.575385 4.726154 0 7.876923-4.726153 9.452308 0 1.575385 0 1.575385-1.575385 1.575384z" fill="#116FFF" p-id="3506"></path><path d="M518.301538 595.495385c-1.575385 0-3.150769 0-4.726153-1.575385-3.150769-3.150769-4.726154-7.876923-1.575385-11.027692l182.744615-256.787693c3.150769-3.150769 7.876923-3.150769 11.027693 0 3.150769 3.150769 3.150769 7.876923 0 11.027693L524.603077 592.344615c-1.575385 1.575385-4.726154 3.150769-6.301539 3.15077zM433.230769 581.316923c-3.150769 0-6.301538-1.575385-7.876923-4.726154l-94.523077-274.116923c-1.575385-4.726154 0-7.876923 4.726154-9.452308 4.726154-1.575385 7.876923 0 9.452308 4.726154l94.523077 274.116923c1.575385 4.726154 0 7.876923-4.726154 9.452308h-1.575385z" fill="#116FFF" p-id="3507"></path><path d="M378.092308 417.476923c-3.150769 0-6.301538-3.150769-7.876923-6.301538-1.575385-4.726154 1.575385-7.876923 6.301538-9.452308l322.953846-78.769231c4.726154-1.575385 9.452308 3.150769 9.452308 7.876923s-3.150769 7.876923-6.301539 7.876923l-322.953846 78.769231H378.092308zM677.415385 275.692308c-3.150769 0-6.301538-3.150769-7.876923-6.301539-1.575385-4.726154 1.575385-7.876923 6.301538-9.452307l63.015385-15.753847c4.726154-1.575385 7.876923 1.575385 9.452307 6.301539 1.575385 4.726154-1.575385 7.876923-6.301538 9.452308l-63.015385 15.753846H677.415385zM283.569231 283.569231c-3.150769 0-6.301538-1.575385-6.301539-4.726154-1.575385-3.150769 0-7.876923 3.15077-11.027692 33.083077-15.753846 135.483077-3.150769 146.510769 0 4.726154 0 7.876923 4.726154 6.301538 9.452307 0 4.726154-4.726154 7.876923-9.452307 6.301539-29.932308-4.726154-113.427692-12.603077-137.058462 0-1.575385-1.575385-1.575385 0-3.150769 0zM220.553846 575.015385c-4.726154 0-7.876923-4.726154-7.876923-9.452308l15.753846-124.455385c0-4.726154 4.726154-7.876923 9.452308-6.301538 4.726154 0 7.876923 4.726154 6.301538 9.452308l-15.753846 124.455384c0 3.150769-4.726154 6.301538-7.876923 6.301539z" fill="#116FFF" p-id="3508"></path><path d="M204.8 575.015385c-3.150769 0-7.876923-3.150769-7.876923-6.301539l-15.753846-124.455384c0-4.726154 3.150769-7.876923 6.301538-9.452308 4.726154 0 7.876923 3.150769 9.452308 6.301538l15.753846 124.455385c1.575385 4.726154-1.575385 7.876923-7.876923 9.452308 1.575385 0 1.575385 0 0 0zM179.593846 586.043077c-1.575385 0-4.726154-1.575385-6.301538-3.150769l-77.193846-99.249231c-3.150769-3.150769-1.575385-9.452308 1.575384-11.027692 3.150769-3.150769 7.876923-1.575385 11.027692 1.575384l77.193847 99.249231c3.150769 3.150769 1.575385 7.876923-1.575385 11.027692-1.575385 0-3.150769 1.575385-4.726154 1.575385z" fill="#116FFF" p-id="3509"></path><path d="M168.566154 595.495385c-1.575385 0-3.150769 0-4.726154-1.575385l-99.249231-75.618462c-3.150769-3.150769-4.726154-7.876923-1.575384-11.027692 3.150769-3.150769 7.876923-4.726154 11.027692-1.575384l99.249231 75.618461c3.150769 3.150769 4.726154 7.876923 1.575384 11.027692-1.575385 3.150769-4.726154 3.150769-6.301538 3.15077zM157.538462 622.276923l-126.03077-15.753846c-4.726154 0-7.876923-4.726154-6.301538-9.452308 0-4.726154 4.726154-7.876923 9.452308-6.301538l124.455384 15.753846c4.726154 0 7.876923 4.726154 6.301539 9.452308 0 3.150769-4.726154 6.301538-7.876923 6.301538zM33.083077 653.784615c-3.150769 0-7.876923-3.150769-7.876923-6.301538 0-4.726154 3.150769-7.876923 6.301538-9.452308l124.455385-15.753846c4.726154 0 7.876923 3.150769 9.452308 6.301539 0 4.726154-3.150769 7.876923-6.301539 9.452307l-126.030769 15.753846zM69.316923 740.430769c-1.575385 0-4.726154-1.575385-6.301538-3.150769-3.150769-3.150769-1.575385-7.876923 1.575384-11.027692l99.249231-77.193846c3.150769-3.150769 7.876923-1.575385 11.027692 1.575384 3.150769 3.150769 1.575385 7.876923-1.575384 11.027692l-99.249231 77.193847c-1.575385 1.575385-3.150769 1.575385-4.726154 1.575384z" fill="#116FFF" p-id="3510"></path><path d="M102.4 773.513846c-1.575385 0-3.150769 0-4.726154-1.575384-3.150769-3.150769-4.726154-7.876923-1.575384-11.027693l75.618461-99.249231c3.150769-3.150769 7.876923-4.726154 11.027692-1.575384 3.150769 3.150769 4.726154 7.876923 1.575385 11.027692l-75.618462 99.249231c-1.575385 3.150769-4.726154 3.150769-6.301538 3.150769zM189.046154 809.747692c-4.726154 0-7.876923-4.726154-7.876923-9.452307l15.753846-124.455385c0-4.726154 4.726154-7.876923 9.452308-6.301538 4.726154 0 7.876923 4.726154 6.301538 9.452307l-15.753846 124.455385c0 3.150769-4.726154 6.301538-7.876923 6.301538z" fill="#116FFF" p-id="3511"></path><path d="M236.307692 809.747692c-3.150769 0-7.876923-3.150769-7.876923-6.301538l-15.753846-124.455385c0-4.726154 3.150769-7.876923 6.301539-9.452307 4.726154 0 7.876923 3.150769 9.452307 6.301538l15.753846 124.455385c0 4.726154-3.150769 9.452308-7.876923 9.452307zM285.144615 575.015385c-1.575385 0-4.726154-1.575385-6.301538-3.15077-3.150769-3.150769-1.575385-7.876923 1.575385-11.027692l70.892307-55.138461c3.150769-3.150769 7.876923-1.575385 11.027693 1.575384 3.150769 3.150769 1.575385 7.876923-1.575385 11.027692l-70.892308 55.138462c-1.575385 1.575385-3.150769 1.575385-4.726154 1.575385zM304.049231 617.550769c-3.150769 0-7.876923-3.150769-7.876923-6.301538 0-4.726154 3.150769-7.876923 6.301538-9.452308l88.221539-11.027692c4.726154 0 7.876923 3.150769 9.452307 6.301538 0 4.726154-3.150769 7.876923-6.301538 9.452308l-89.796923 11.027692zM322.953846 773.513846c-1.575385 0-4.726154-1.575385-6.301538-3.150769l-77.193846-99.249231c-3.150769-3.150769-1.575385-7.876923 1.575384-11.027692 3.150769-3.150769 7.876923-1.575385 11.027692 1.575384l77.193847 99.249231c3.150769 3.150769 1.575385 7.876923-1.575385 11.027693-1.575385 1.575385-3.150769 1.575385-4.726154 1.575384z" fill="#116FFF" p-id="3512"></path><path d="M356.036923 740.430769c-1.575385 0-3.150769 0-4.726154-1.575384L252.061538 663.236923c-3.150769-3.150769-4.726154-7.876923-1.575384-11.027692 3.150769-3.150769 7.876923-4.726154 11.027692-1.575385l99.249231 75.618462c3.150769 3.150769 4.726154 7.876923 1.575385 11.027692-1.575385 1.575385-3.150769 3.150769-6.301539 3.150769zM393.846154 653.784615L211.101538 630.153846c-4.726154 0-7.876923-4.726154-6.301538-9.452308 0-4.726154 4.726154-7.876923 9.452308-6.301538l181.16923 23.630769c4.726154 0 7.876923 4.726154 6.301539 9.452308 0 3.150769-4.726154 6.301538-7.876923 6.301538z" fill="#116FFF" p-id="3513"></path><path d="M212.676923 827.076923c-53.563077 0-105.550769-20.48-143.36-59.864615-7.876923-7.876923-14.178462-15.753846-20.48-23.63077-59.864615-80.344615-50.412308-195.347692 20.48-266.24 31.507692-31.507692 72.467692-51.987692 118.153846-58.28923 45.686154-6.301538 92.947692 3.150769 132.332308 28.356923 3.150769 1.575385 4.726154 7.876923 3.150769 11.027692-1.575385 3.150769-7.876923 4.726154-11.027692 3.150769-36.233846-22.055385-80.344615-31.507692-122.88-25.206154-40.96 4.726154-78.769231 23.630769-108.701539 53.563077C14.178462 556.110769 6.301538 660.086154 61.44 735.704615c4.726154 6.301538 11.027692 12.603077 17.329231 20.48 42.535385 42.535385 99.249231 61.44 157.538461 53.563077 40.96-4.726154 78.769231-23.630769 108.701539-53.563077 20.48-20.48 34.658462-44.110769 44.110769-70.892307 1.575385-4.726154 6.301538-6.301538 9.452308-4.726154 4.726154 1.575385 6.301538 6.301538 4.726154 9.452308-9.452308 28.356923-26.781538 55.138462-48.836924 75.618461-31.507692 31.507692-72.467692 51.987692-118.153846 58.289231-6.301538 3.150769-15.753846 3.150769-23.630769 3.150769zM819.2 575.015385c-4.726154 0-7.876923-4.726154-7.876923-9.452308l15.753846-124.455385c0-4.726154 4.726154-7.876923 9.452308-6.301538 4.726154 0 7.876923 4.726154 6.301538 9.452308l-15.753846 124.455384c0 3.150769-4.726154 6.301538-7.876923 6.301539zM797.144615 527.753846c-3.150769 0-7.876923-3.150769-7.876923-6.301538l-9.452307-77.193846c0-4.726154 3.150769-7.876923 6.301538-9.452308 4.726154 0 7.876923 3.150769 9.452308 6.301538l9.452307 77.193846c1.575385 4.726154-1.575385 7.876923-7.876923 9.452308 1.575385 0 1.575385 0 0 0zM787.692308 809.747692c-4.726154 0-7.876923-4.726154-7.876923-9.452307l15.753846-124.455385c0-4.726154 4.726154-7.876923 9.452307-6.301538 4.726154 0 7.876923 4.726154 6.301539 9.452307l-15.753846 124.455385c0 3.150769-4.726154 6.301538-7.876923 6.301538z" fill="#116FFF" p-id="3514"></path><path d="M834.953846 809.747692c-3.150769 0-7.876923-3.150769-7.876923-6.301538l-15.753846-124.455385c0-4.726154 3.150769-7.876923 6.301538-9.452307 4.726154 0 7.876923 3.150769 9.452308 6.301538l15.753846 124.455385c0 4.726154-3.150769 9.452308-7.876923 9.452307zM760.910769 563.987692c-1.575385 0-4.726154-1.575385-6.301538-3.150769l-59.864616-77.193846c-3.150769-3.150769-1.575385-7.876923 1.575385-11.027692 3.150769-3.150769 7.876923-1.575385 11.027692 1.575384l59.864616 77.193846c3.150769 3.150769 1.575385 7.876923-1.575385 11.027693-1.575385 0-3.150769 1.575385-4.726154 1.575384zM767.212308 595.495385c-1.575385 0-3.150769 0-4.726154-1.575385l-99.249231-75.618462c-3.150769-3.150769-4.726154-7.876923-1.575385-11.027692 3.150769-3.150769 7.876923-4.726154 11.027693-1.575384l99.249231 75.618461c3.150769 3.150769 4.726154 7.876923 1.575384 11.027692-1.575385 3.150769-4.726154 3.150769-6.301538 3.15077zM921.6 773.513846c-1.575385 0-4.726154-1.575385-6.301538-3.150769l-77.193847-99.249231c-3.150769-3.150769-1.575385-7.876923 1.575385-11.027692 3.150769-3.150769 7.876923-1.575385 11.027692 1.575384l77.193846 99.249231c3.150769 3.150769 1.575385 7.876923-1.575384 11.027693-1.575385 1.575385-3.150769 1.575385-4.726154 1.575384z" fill="#116FFF" p-id="3515"></path><path d="M954.683077 740.430769c-1.575385 0-3.150769 0-4.726154-1.575384L850.707692 663.236923c-3.150769-3.150769-4.726154-7.876923-1.575384-11.027692 3.150769-3.150769 7.876923-4.726154 11.027692-1.575385l99.249231 75.618462c3.150769 3.150769 4.726154 7.876923 1.575384 11.027692-1.575385 1.575385-3.150769 3.150769-6.301538 3.150769zM756.184615 622.276923l-126.030769-15.753846c-4.726154 0-7.876923-4.726154-6.301538-9.452308 0-4.726154 4.726154-7.876923 9.452307-6.301538l124.455385 15.753846c4.726154 0 7.876923 4.726154 6.301538 9.452308 0 3.150769-3.150769 6.301538-7.876923 6.301538zM631.729231 653.784615c-3.150769 0-7.876923-3.150769-7.876923-6.301538 0-4.726154 3.150769-7.876923 6.301538-9.452308l124.455385-15.753846c4.726154 0 7.876923 3.150769 9.452307 6.301539 0 4.726154-3.150769 7.876923-6.301538 9.452307l-126.030769 15.753846zM990.916923 653.784615l-126.030769-15.753846c-4.726154 0-7.876923-4.726154-6.301539-9.452307 0-4.726154 4.726154-7.876923 9.452308-6.301539l124.455385 15.753846c4.726154 0 7.876923 4.726154 6.301538 9.452308 0 3.150769-3.150769 6.301538-7.876923 6.301538z" fill="#116FFF" p-id="3516"></path><path d="M866.461538 622.276923c-3.150769 0-7.876923-3.150769-7.876923-6.301538 0-4.726154 3.150769-7.876923 6.301539-9.452308l124.455384-15.753846c4.726154 0 7.876923 3.150769 9.452308 6.301538 0 4.726154-3.150769 7.876923-6.301538 9.452308l-126.03077 15.753846c1.575385 0 1.575385 0 0 0zM667.963077 740.430769c-1.575385 0-4.726154-1.575385-6.301539-3.150769-3.150769-3.150769-1.575385-7.876923 1.575385-11.027692l99.249231-77.193846c3.150769-3.150769 7.876923-1.575385 11.027692 1.575384 3.150769 3.150769 1.575385 7.876923-1.575384 11.027692l-99.249231 77.193847c-1.575385 1.575385-3.150769 1.575385-4.726154 1.575384z" fill="#116FFF" p-id="3517"></path><path d="M701.046154 773.513846c-1.575385 0-3.150769 0-4.726154-1.575384-3.150769-3.150769-4.726154-7.876923-1.575385-11.027693l75.618462-99.249231c3.150769-3.150769 7.876923-4.726154 11.027692-1.575384 3.150769 3.150769 4.726154 7.876923 1.575385 11.027692l-75.618462 99.249231c-1.575385 3.150769-4.726154 3.150769-6.301538 3.150769zM855.433846 597.070769c-1.575385 0-4.726154-1.575385-6.301538-3.150769-3.150769-3.150769-1.575385-7.876923 1.575384-11.027692l99.249231-77.193846c3.150769-3.150769 7.876923-1.575385 11.027692 1.575384 3.150769 3.150769 1.575385 7.876923-1.575384 11.027692l-99.249231 77.193847c-1.575385 0-3.150769 1.575385-4.726154 1.575384z" fill="#116FFF" p-id="3518"></path><path d="M845.981538 586.043077c-1.575385 0-3.150769 0-4.726153-1.575385-3.150769-3.150769-4.726154-7.876923-1.575385-11.027692l75.618462-99.249231c3.150769-3.150769 7.876923-4.726154 11.027692-1.575384 3.150769 3.150769 4.726154 7.876923 1.575384 11.027692L852.283077 582.892308c-1.575385 1.575385-4.726154 3.150769-6.301539 3.150769zM408.024615 600.221538c-3.150769 0-7.876923-3.150769-7.876923-6.301538-6.301538-40.96-25.206154-77.193846-53.563077-105.550769-3.150769-3.150769-3.150769-7.876923 0-11.027693 3.150769-3.150769 7.876923-3.150769 11.027693 0 31.507692 31.507692 50.412308 70.892308 58.28923 113.427693 0 4.726154-3.150769 7.876923-7.876923 9.452307zM315.076923 307.2c-31.507692 0-39.384615-20.48-39.384615-31.507692 0-4.726154 3.150769-7.876923 7.876923-7.876923s7.876923 3.150769 7.876923 7.876923c0 3.150769 1.575385 15.753846 23.630769 15.753846 4.726154 0 7.876923 3.150769 7.876923 7.876923s-3.150769 7.876923-7.876923 7.876923z m-23.630769-31.507692z" fill="#116FFF" p-id="3519"></path><path d="M315.076923 307.2c-4.726154 0-7.876923-3.150769-7.876923-7.876923s3.150769-7.876923 7.876923-7.876923c23.630769 0 92.947692-7.876923 102.4-17.329231 0-3.150769 3.150769-6.301538 7.876923-6.301538s7.876923 3.150769 7.876923 7.876923c0 28.356923-116.578462 31.507692-118.153846 31.507692z m102.4-31.507692zM378.092308 385.969231h-12.603077c-4.726154 0-7.876923-3.150769-7.876923-7.876923s3.150769-7.876923 7.876923-7.876923h12.603077c4.726154 0 7.876923 3.150769 7.876923 7.876923s-3.150769 7.876923-7.876923 7.876923zM464.738462 677.415385c-17.329231 0-31.507692-14.178462-31.507693-31.507693s14.178462-31.507692 31.507693-31.507692 31.507692 14.178462 31.507692 31.507692c0 9.452308-3.150769 17.329231-11.027692 23.63077-4.726154 4.726154-12.603077 7.876923-20.48 7.876923z m0-47.261539c-9.452308 0-15.753846 6.301538-15.753847 15.753846s6.301538 15.753846 15.753847 15.753846c3.150769 0 7.876923-1.575385 11.027692-4.726153 3.150769-3.150769 4.726154-7.876923 4.726154-11.027693 0-9.452308-6.301538-15.753846-15.753846-15.753846z" fill="#116FFF" p-id="3520"></path><path d="M535.630769 732.553846c-1.575385 0-4.726154-1.575385-6.301538-3.150769l-70.892308-78.769231c-3.150769-3.150769-3.150769-7.876923 0-11.027692 3.150769-3.150769 7.876923-3.150769 11.027692 0l70.892308 78.769231c3.150769 3.150769 3.150769 7.876923 0 11.027692-1.575385 3.150769-3.150769 3.150769-4.726154 3.150769z" fill="#116FFF" p-id="3521"></path><path d="M559.261538 732.553846H504.123077c-4.726154 0-7.876923-3.150769-7.876923-7.876923s3.150769-7.876923 7.876923-7.876923h55.138461c4.726154 0 7.876923 3.150769 7.876924 7.876923s-3.150769 7.876923-7.876924 7.876923zM740.430769 307.2c-4.726154 0-7.876923-3.150769-7.876923-7.876923s3.150769-7.876923 7.876923-7.876923c7.876923 0 12.603077-6.301538 14.178462-11.027692 3.150769-7.876923 3.150769-15.753846-1.575385-20.48-1.575385-3.150769-6.301538-3.150769-11.027692-1.575385-4.726154 1.575385-7.876923-1.575385-9.452308-4.726154-1.575385-4.726154 1.575385-7.876923 4.726154-9.452308 15.753846-4.726154 23.630769 1.575385 28.356923 6.301539 7.876923 9.452308 9.452308 23.630769 3.150769 37.809231-4.726154 11.027692-15.753846 18.904615-28.356923 18.904615zM464.738462 708.923077c-34.658462 0-63.015385-28.356923-63.015385-63.015385s28.356923-63.015385 63.015385-63.015384c4.726154 0 9.452308 0 12.603076 1.575384 28.356923 6.301538 50.412308 31.507692 50.412308 61.44 0 17.329231-7.876923 34.658462-20.48 47.261539-12.603077 9.452308-26.781538 15.753846-42.535384 15.753846z m0-110.276923c-26.781538 0-47.261538 20.48-47.261539 47.261538s20.48 47.261538 47.261539 47.261539c11.027692 0 23.630769-4.726154 31.507692-12.603077 9.452308-9.452308 15.753846-22.055385 15.753846-34.658462 0-22.055385-15.753846-42.535385-37.809231-45.686154-3.150769-1.575385-6.301538-1.575385-9.452307-1.575384z" fill="#116FFF" p-id="3522"></path></svg>